# xmcd
#
# Track frame offsets: 
#        150
#        10337
#        26552
#        37545
#        51096
#        81957
#        100336
#        124252
#        147206
#        162914
#        188459
#        208830
#        236855
#        257359
#        271724
#        293305
#
# Disc length: 4313 seconds
#
# Revision: 3
# Processed by: cddbd v1.5.2PL0 Copyright (c) Steve Scherf et al.
# Submitted via: ExactAudioCopyFreeDBPlugin 1.0
#
DISCID=cc10d710
DTITLE=John Lee Hooker - Anthology 50 Years - CD2
DYEAR=2009
DGENRE=Blues
TTITLE0=Big Legs Tight Skirt
TTITLE1=It Serves Me Right To Suffer
TTITLE2=Bottle Up And Go
TTITLE3=One Bourbon, One Scotch, One Beer
TTITLE4=Let's Go Out Tonight
TTITLE5=I Cover The Waterfront
TTITLE6=I'm Bad Like Jesse James (Live)
TTITLE7=Peavine
TTITLE8=Jealous
TTITLE9=The Healer
TTITLE10=I'm In The Mood
TTITLE11=Same Old Blues Again
TTITLE12=Boogie At Russian Hill
TTITLE13=Kiddio
TTITLE14=Chill Out (Things Gonna Change)
TTITLE15=Don't Look Back
EXTD=by Columbia No1
EXTT0=
EXTT1=
EXTT2=
EXTT3=
EXTT4=
EXTT5=
EXTT6=
EXTT7=
EXTT8=
EXTT9=
EXTT10=
EXTT11=
EXTT12=
EXTT13=
EXTT14=
EXTT15=
PLAYORDER=
